<?xml version="1.0" encoding="UTF-8" standalone="no"?>
<!DOCTYPE svg PUBLIC "-//W3C//DTD SVG 1.1//EN" "http://www.w3.org/Graphics/SVG/1.1/DTD/svg11.dtd">
<svg width="100%" height="100%" viewBox="0 0 838 347" version="1.1" xmlns="http://www.w3.org/2000/svg" xmlns:xlink="http://www.w3.org/1999/xlink" xml:space="preserve" xmlns:serif="http://www.serif.com/" style="fill-rule:evenodd;clip-rule:evenodd;stroke-linejoin:round;stroke-miterlimit:2;">
    <g transform="matrix(1,0,0,1,10.1245,5.481)">
        <path d="M0,175.785C0.005,175.777 0.01,175.77 0.015,175.764C4.449,168.787 8.469,160.877 14.234,154.902C18.961,150.004 24.846,146.203 30.967,143.3C34.868,141.449 38.842,139.744 42.772,137.962C59.433,130.415 126.28,100.018 143.052,92.387C146.547,90.798 150.069,89.294 153.339,87.266C156.489,85.314 159.231,82.94 162.082,80.61C167.901,75.852 240.765,19.24 246.289,14.535C251.961,9.7 258.495,5.942 265.617,3.698C273.835,1.109 282.482,-0.339 290.89,-2.185C295.904,-3.285 300.919,-4.382 305.935,-5.481C294.693,-3.544 283.483,-1.402 272.34,1.042C265.108,2.628 258.658,4.387 252.227,8.152C247.699,10.806 243.375,13.806 239.011,16.722C221.076,28.697 169.429,63.432 161.52,68.793C154.83,73.328 148.364,77.913 140.914,81.186C124.916,88.215 47.702,121.766 25.32,131.988C15.999,136.705 7.444,143.438 1.34,151.967C-0.743,154.878 -2.476,158.025 -4.252,161.127C-6.041,164.248 -8.327,167.429 -9.692,170.756C-12.149,176.755 -3.491,181.266 0,175.785" style="fill:rgb(190,190,191);fill-rule:nonzero;"/>
    </g>
    <g transform="matrix(1,0,0,1,69.2788,246.157)">
        <path d="M0,25.789C10.342,29.438 91.921,48.036 100.877,49.845C96.686,42.605 91.39,36.446 85.558,32.173C80.672,28.593 74.65,26.498 68.273,24.278C66.447,23.643 -38.228,-19.534 -44.799,-24.056C-44.799,-24.056 -35.288,0.661 -35.256,0.743C-29.99,14.451 -12.694,21.312 0,25.789" style="fill:rgb(198,246,213);fill-rule:nonzero;"/>
    </g>
    <g transform="matrix(1,0,0,1,-437.773,-408.633)">
        <g opacity="0.6">
            <g transform="matrix(1,0,0,1,643.844,647.72)">
                <path d="M0,54.266C-9.82,42.899 -21.799,33.321 -34.452,25.282C-40.916,21.177 -47.647,17.776 -54.931,15.365C-59.971,13.697 -65.154,12.497 -70.254,11.023C-90.584,5.151 -110.586,-1.9 -130.52,-8.978C-148.928,-15.514 -167.28,-22.215 -185.55,-29.125C-177.293,-19.592 -163.833,-15.304 -152.563,-10.383C-132.683,-1.701 -112.736,6.843 -92.614,14.951C-85.797,17.698 -78.957,20.394 -72.067,22.956C-63.757,26.046 -54.911,28.378 -47.666,33.688C-37.025,41.485 -28.95,53.944 -24.501,66.294C-38.519,63.579 -52.5,60.672 -66.458,57.659C-78.77,55.002 -91.06,52.24 -103.303,49.281C-115.446,46.344 -127.791,43.513 -139.585,39.353C-152.663,34.742 -167.688,27.7 -176.583,16.506C-171.819,27.208 -162.836,37.552 -152.183,42.789C-147.02,45.329 -141.322,46.957 -135.856,48.694C-114.843,55.361 -93.488,61.012 -72.125,66.43C-54.236,70.966 -36.276,75.261 -18.209,79.035C-14.211,79.87 -10.206,80.678 -6.192,81.442C-2.355,82.173 2.1,83.391 5.803,81.52C10.468,79.164 9.945,73.034 8.725,68.805C7.135,63.287 3.709,58.56 0,54.266" style="fill:rgb(104,211,145);fill-rule:nonzero;"/>
            </g>
        </g>
    </g>
    <g transform="matrix(1,0,0,1,837.09,10.0217)">
        <path d="M0,165.59C-0.618,164.514 -1.817,162.421 -0.01,165.57C-5.074,156.748 -9.582,147.485 -16.864,140.229C-22.062,135.051 -28.163,130.756 -34.703,127.447C-63.246,114.397 -92.196,102.171 -120.928,89.547C-135.935,82.955 -151.836,77.244 -165.417,67.98C-181.394,57.082 -240.702,17.296 -254.326,8.223C-259.432,4.824 -264.801,1.109 -270.701,-0.754C-276.747,-2.663 -283.069,-3.83 -289.274,-5.111C-297.924,-6.894 -306.612,-8.52 -315.318,-10.021C-306.815,-8.16 -298.312,-6.298 -289.812,-4.424C-281.678,-2.631 -273.561,-1.032 -266.12,2.876C-258.339,6.962 -212.48,44.018 -196.219,56.624C-189.319,61.974 -182.408,67.319 -175.579,72.758C-169.634,77.489 -164.09,82.542 -157.082,85.731C-141.659,92.752 -75.445,122.86 -57.761,130.882C-42.764,137.683 -26.868,143.453 -17.721,158.158C-16.084,160.793 -14.408,163.406 -12.731,166.018C-11.247,168.33 -9.823,171.863 -7.269,173.174C-2.527,175.611 2.621,170.211 0,165.59" style="fill:rgb(190,190,191);fill-rule:nonzero;"/>
    </g>
    <g transform="matrix(1,0,0,1,682.965,239.772)">
        <path d="M0,38.557C-5.832,42.83 -11.131,48.99 -15.32,56.229C-6.364,54.42 75.216,35.823 85.557,32.173C98.25,27.697 115.545,20.835 120.813,7.127C120.846,7.045 130.355,-17.672 130.355,-17.672C123.784,-13.15 19.111,30.027 17.284,30.662C10.908,32.882 4.885,34.977 0,38.557" style="fill:rgb(198,246,213);fill-rule:nonzero;"/>
    </g>
    <g transform="matrix(1,0,0,1,-437.773,-408.633)">
        <g opacity="0.6">
            <g transform="matrix(1,0,0,1,1138.81,690.266)">
                <path d="M0,-31.243C-10.485,-28.245 -20.864,-25.613 -30.358,-20.004C-30.363,-20.002 -30.367,-19.999 -30.37,-19.997C-42.889,-12.597 -54.697,-3.618 -64.814,6.843C-70.021,12.229 -75.427,18.206 -77.765,25.471C-79.615,31.225 -79.475,38.992 -71.986,39.846C-66.896,40.428 -61.225,38.556 -56.262,37.554C-50.663,36.426 -45.077,35.23 -39.502,33.994C-27.316,31.292 -15.175,28.396 -3.067,25.373C18.976,19.866 40.984,14.062 62.699,7.36C68.952,5.431 75.301,3.533 81.328,0.96C90.504,-2.956 98.619,-11.146 103.819,-19.482C105.131,-21.584 106.296,-23.776 107.305,-26.04C104.443,-22.441 100.693,-19.45 96.99,-16.779C86.571,-9.258 74.547,-4.171 62.246,-0.631C38.787,6.126 14.868,11.361 -9.001,16.439C-20.906,18.972 -32.829,21.433 -44.777,23.748C-42.151,16.457 -38.184,9.471 -33.548,3.289C-29.388,-2.259 -24.398,-7.422 -18.397,-10.974C-12.9,-14.226 -6.813,-16.094 -0.847,-18.254C19.814,-25.738 40.083,-34.36 60.29,-42.992C71.721,-47.876 83.125,-52.831 94.498,-57.852C102.507,-61.387 110.353,-64.838 116.27,-71.671C85.269,-59.945 54.086,-48.575 22.591,-38.255C15.1,-35.801 7.584,-33.411 0,-31.243" style="fill:rgb(104,211,145);fill-rule:nonzero;"/>
            </g>
        </g>
    </g>
    <g transform="matrix(1,0,0,1,180.489,50.3338)">
        <path d="M0,48.151C18.31,53.653 37.348,57.157 56.16,60.373C108.672,69.35 162.013,73.495 215.249,74.459C274.944,75.539 334.869,72.719 394.035,64.495C420.885,60.761 447.886,56.207 474.048,48.956C474.988,48.695 475.922,48.431 476.854,48.151L388.201,-27.388C363.199,-22.625 337.556,-21.104 312.158,-20.291C291.458,-19.628 270.731,-19.62 250.027,-20.158C224.124,-20.83 198.223,-19.457 172.292,-20.078C144.379,-20.745 116.132,-22.154 88.651,-27.388L0,48.151Z" style="fill:rgb(128,128,128);fill-rule:nonzero;"/>
    </g>
    <g transform="matrix(1,0,0,1,631.526,233.522)">
        <path d="M0,9.622C-3.125,11.435 -6.537,13.162 -9.202,15.638C-12.779,18.958 -16.207,22.413 -19.615,25.91C-23.709,30.114 -27.36,34.247 -32.727,36.815C-35.104,37.801 -37.143,38.038 -39.104,37.534C-41.853,37.073 -45.172,34.685 -47.357,33.12C-50.379,30.959 -53.278,28.658 -56.172,26.332C-62.999,20.832 -69.201,16.381 -78.267,15.752C-92.547,14.759 -107.074,15.513 -121.384,15.528C-137.854,15.546 -154.325,15.524 -170.794,15.674C-223.609,16.154 -276.412,15.559 -329.232,15.502C-340.756,15.488 -353.282,14.146 -362.98,21.601C-366.727,24.481 -370.341,27.572 -374.153,30.368C-376.489,32.081 -378.755,33.721 -381.265,35.16C-382.751,36.013 -384.391,37.243 -386.118,37.534C-388.08,38.038 -390.12,37.801 -392.498,36.815C-398.064,34.146 -401.869,29.751 -406.117,25.387C-412.317,19.016 -418.052,13.154 -426.107,9.176C-440.205,2.211 -591.059,-35.436 -625.928,-43.893C-625.928,-43.893 -469.239,6.071 -452.366,10.259C-444.161,12.296 -435.98,15.235 -428.784,19.726C-423.043,23.306 -418.901,27.958 -414.254,32.867C-406.23,41.345 -396.655,51.952 -383.504,48.707C-376.572,47.34 -369.911,41.956 -364.523,37.764C-360.081,34.305 -355.419,29.531 -349.78,28.299C-345.514,27.368 -340.973,27.703 -336.638,27.722C-327.796,27.763 -318.954,27.727 -310.111,27.717C-293.378,27.698 -276.645,27.738 -259.913,27.609C-238.563,27.447 -217.231,27.036 -195.883,27.327C-164.735,27.751 -133.585,27.698 -102.435,27.73C-96.426,27.737 -90.413,27.731 -84.404,27.704C-82.031,27.692 -79.296,27.458 -76.972,27.966C-72.238,28.999 -69.327,31.161 -65.536,33.999C-62.111,36.562 -58.791,39.226 -55.303,41.706C-51.406,44.475 -46.521,47.76 -41.718,48.707C-22.226,53.515 -11.667,30.007 1.572,20.978C12.909,13.247 26.578,10.571 39.521,6.751C56.438,1.759 200.707,-43.893 200.707,-43.893C200.707,-43.893 12.521,2.365 0,9.622" style="fill:rgb(128,128,128);fill-rule:nonzero;"/>
    </g>
    <g transform="matrix(1,0,0,1,418.916,321.828)">
        <path d="M0,-25.129C-88.017,-25.129 -125.328,-33.239 -124.725,-33.698C-123.661,-34.513 -122.407,-34.196 -121.197,-34.052C-102.356,-31.784 -83.188,-31.575 -64.236,-31.163C-45.842,-30.767 -27.439,-30.608 -9.041,-30.599C-6.027,-30.597 6.028,-30.597 9.041,-30.599C27.439,-30.608 45.841,-30.767 64.236,-31.163C83.188,-31.575 102.355,-31.784 121.198,-34.052C122.407,-34.196 123.662,-34.513 124.725,-33.698C125.328,-33.239 88.016,-25.129 0,-25.129M0,-7.167C-85.436,-7.167 -110.252,-14.92 -108.773,-14.729C-104.583,-14.188 -15.12,-12.694 0,-12.685C15.12,-12.694 104.583,-14.188 108.774,-14.729C110.252,-14.92 85.436,-7.167 0,-7.167M0.499,9.836C0.333,9.836 0.166,9.835 0,9.835C-0.166,9.835 -0.333,9.836 -0.499,9.836C-45.203,9.836 -87.246,3.832 -86.974,3.65C-86.005,3 -84.717,3.166 -83.508,3.211C-79.546,3.352 -75.585,3.475 -71.625,3.583C-63.907,3.792 -56.188,3.946 -48.469,4.062C-35.658,4.256 -22.844,4.35 -10.032,4.367C-6.688,4.371 6.688,4.371 10.032,4.367C22.844,4.35 35.657,4.256 48.468,4.062C56.188,3.946 63.907,3.792 71.625,3.583C75.585,3.475 79.546,3.352 83.508,3.211C84.718,3.166 86.006,3 86.974,3.65C87.246,3.832 45.203,9.836 0.499,9.836M154.518,-26.151C151.246,-30.163 147.2,-33.687 143.57,-37.384C134.625,-46.496 122.583,-50.247 110.035,-50.247L-110.034,-50.247C-122.583,-50.247 -134.625,-46.496 -143.57,-37.384C-147.2,-33.687 -151.246,-30.163 -154.518,-26.151C-158.73,-20.986 -157.333,-15.484 -152.978,-11.048C-148.895,-6.89 -144.969,-2.352 -140.466,1.373C-134.776,6.083 -128.051,9.462 -121.233,12.214C-103.078,19.545 -82.556,20.364 -63.257,21.985C-42.248,23.752 -21.104,25.118 0,25.084C21.104,25.118 42.248,23.752 63.256,21.985C82.555,20.364 103.08,19.545 121.233,12.214C128.05,9.462 134.776,6.083 140.467,1.373C144.968,-2.352 148.894,-6.89 152.978,-11.048C157.333,-15.484 158.731,-20.986 154.518,-26.151" style="fill:rgb(128,128,128);fill-rule:nonzero;"/>
    </g>
</svg>
